/* XPM */
static char *result[] = {
/* columns rows colors chars-per-pixel */
"64 64 33 1 ",
"  c black",
". c #020202",
"X c #070707",
"o c gray4",
"O c #0C0C0C",
"+ c gray5",
"@ c #0C0D0E",
"# c #0E0E0F",
"$ c #0E0F10",
"% c #161616",
"& c #161819",
"* c #151C1E",
"= c #181818",
"- c gray10",
"; c #131D20",
": c #222223",
"> c #2D3134",
", c #2E3235",
"< c #243339",
"1 c #2D393F",
"2 c #353F45",
"3 c #124A5E",
"4 c #344F5B",
"5 c #395764",
"6 c #006A92",
"7 c #117599",
"8 c #207E9D",
"9 c #1B94C1",
"0 c #0D9ED1",
"q c #0DA0D7",
"w c #00ADED",
"e c #00AEEF",
"r c None",
/* pixels */
"rrrrrrrrrrrrrrrrrrrrrr   rrrrrrrrrrrrrrrrrrrrrrrrrrrrrrrrrrrrrrr",
"rrrrrrrrrrrrrrrrrrrrr        rrrrrrrrrrrrrrrrrrrrrrrrrrrrrrrrrrr",
"rrrrrrrrrrrrrrrrrrrrr            rrrrrrrrrrrrrrrrrrrrrrrrrrrrrrr",
"rrrrrrrrrrrrrrrrrrrr                 rrrrrrrrrrrrrrrrrrrrrrrrrrr",
"rrrrrrrrrrrrrrrrrrr                      rrrrrrrrrrrrrrrrrrrrrrr",
"rrrrrrrrrrrrrrrrrr   eeeX                    rrrrrrrrrrrrrrrrrrr",
"rrrrrrrrrrrrrrrrr  1eeeeee                       rrrrrrrrrrrrrrr",
"rrrrrrrrrrrrrrrr   eeeeeeee                          rrrrrrrrrrr",
"rrrrrrrrrrrrrrr   eeeeeeeeee                           rrrrrrrrr",
"rrrrrrrrrrrrrr   0eeeeeeeeeee                           rrrrrrrr",
"rrrrrrrrrrrrr    eeeeeeeeeeee                           rrrrrrrr",
"rrrrrrrrrrrr    +eeeeeeeeeeee                           rrrrrrrr",
"rrrrrrrrrrr     eeeeeeeeeeeee>                          rrrrrrrr",
"rrrrrrrrrr      eeeeeeeeeeeee                            rrrrrrr",
"rrrrrrrrr       eeeeeeeeeeee8                            rrrrrrr",
"rrrrrrrr       eeeeeeeeeeeee                             rrrrrrr",
"rrrrrrr        eeeeeeeeeeee                              rrrrrrr",
"rrrrrr         eeeeeeeeeee                                rrrrrr",
"rrrrr         $eeeeeeeeee                                 rrrrrr",
"rrrr          eeeeeeeeee2                                 rrrrrr",
"rrr           eeeeeeeeee                                   rrrrr",
"rr            eeeeeeeee#                                   rrrrr",
"r             eeeeeeeee                                    rrrrr",
"             eeeeeeeeee                                    rrrrr",
"             eeeeeeeee%                                     rrrr",
"             eeeeeeeee                                      rrrr",
"r            eeeeeeeee                                      rrrr",
"r            eeeeeeeee                                       rrr",
"r            eeeeeeeee                                       rrr",
"rr          6eeeeeeeee                                       rrr",
"rr          eeeeeeeeee                                       rrr",
"rr          eeeeeeeeee                                        rr",
"rr          eeeeeeeeee                                        rr",
"rrr         eeeeeeeeee                                        rr",
"rrr         eeeeeeeeee&                                        r",
"rrr         eeeeeeeeeee                                        r",
"rrr         eeeeeeeeeee                                        r",
"rrrr        9eeeeeeeeee                                        r",
"rrrr        @eeeeeeeeeeq                                        ",
"rrrr         eeeeeeeeeee                                        ",
"rrrrr        eeeeeeeeeee                                        ",
"rrrrr        eeeeeeeeeeee                      ee;             r",
"rrrrr        4eeeeeeeeeee                     eeeee           rr",
"rrrrr         eeeeeeeeeeee                   eeeeee          rrr",
"rrrrrr        eeeeeeeeeeee                  eeeeeeee        rrrr",
"rrrrrr         eeeeeeeeeeee                eeeeeeeee       rrrrr",
"rrrrrr         eeeeeeeeeeeeeo            weeeeeeeeeew     rrrrrr",
"rrrrrrr         eeeeeeeeeeeeee3       Oeeeeeeeeeeeeee    rrrrrrr",
"rrrrrrr          eeeeeeeeeeeeeeeeeeeeeeeeeeeeeeeeeeee   rrrrrrrr",
"rrrrrrr          =eeeeeeeeeeeeeeeeeeeeeeeeeeeeeeeeee5  rrrrrrrrr",
"rrrrrrr           *eeeeeeeeeeeeeeeeeeeeeeeeeeeeeeeee  rrrrrrrrrr",
"rrrrrrrr           .eeeeeeeeeeeeeeeeeeeeeeeeeeeeeee  rrrrrrrrrrr",
"rrrrrrrr             eeeeeeeeeeeeeeeeeeeeeeeeeeeee  rrrrrrrrrrrr",
"rrrrrrrr               eeeeeeeeeeeeeeeeeeeeeeeee7  rrrrrrrrrrrrr",
"rrrrrrrrr                eeeeeeeeeeeeeeeeeeeee<   rrrrrrrrrrrrrr",
"rrrrrrrrr                   eeeeeeeeeeeeeee-     rrrrrrrrrrrrrrr",
"rrrrrrrrrrr                        :,           rrrrrrrrrrrrrrrr",
"rrrrrrrrrrrrrrr                                rrrrrrrrrrrrrrrrr",
"rrrrrrrrrrrrrrrrrrr                           rrrrrrrrrrrrrrrrrr",
"rrrrrrrrrrrrrrrrrrrrrrr                      rrrrrrrrrrrrrrrrrrr",
"rrrrrrrrrrrrrrrrrrrrrrrrrrr                  rrrrrrrrrrrrrrrrrrr",
"rrrrrrrrrrrrrrrrrrrrrrrrrrrrrrr             rrrrrrrrrrrrrrrrrrrr",
"rrrrrrrrrrrrrrrrrrrrrrrrrrrrrrrrrrr        rrrrrrrrrrrrrrrrrrrrr",
"rrrrrrrrrrrrrrrrrrrrrrrrrrrrrrrrrrrrrrr   rrrrrrrrrrrrrrrrrrrrrr"
};
