/* XPM */
static char *result[] = {
/* columns rows colors chars-per-pixel */
"32 32 12 1 ",
"  c black",
". c #020203",
"X c gray1",
"o c #040404",
"O c #060607",
"+ c #070707",
"@ c #181819",
"# c #2C2F32",
"$ c #337691",
"% c #2291BC",
"& c #00AEEF",
"* c None",
/* pixels */
"***********   ******************",
"**********        **************",
"*********            ***********",
"******** #&&&o           *******",
"*******  &&&&&              ****",
"******  &&&&&&&             ****",
"*****   &&&&&&&             ****",
"****    &&&&&&               ***",
"***    &&&&&&                ***",
"**     &&&&&                 ***",
"*      &&&&&                 ***",
"       &&&&O                  **",
"      X&&&&                   **",
"      &&&&&                   **",
"*     &&&&&                   **",
"*     &&&&&                    *",
"*     &&&&&                    *",
"**    &&&&&                    *",
"**    &&&&&&                    ",
"**    &&&&&&                    ",
"**    .&&&&&                    ",
"***    &&&&&&          &&%     *",
"***    &&&&&&         &&&&    **",
"***     &&&&&&&     &&&&&&   ***",
"***     +&&&&&&&&&&&&&&&&&  ****",
"****     @&&&&&&&&&&&&&&&& *****",
"****       &&&&&&&&&&&&&& ******",
"****         &&&&&&&&&$  *******",
"*******                 ********",
"**********             *********",
"**************        **********",
"******************   ***********"
};
