/* XPM */
static char *result[] = {
/* columns rows colors chars-per-pixel */
"16 16 6 1 ",
"  c black",
". c #010101",
"X c #32393D",
"o c #00ACEA",
"O c #00AEEF",
"+ c None",
/* pixels */
"+++++   ++++++++",
"++++ O      ++++",
"+++ OOO       ++",
"++  OOO       ++",
"+   OO        ++",
"   OOO         +",
"   OOO         +",
"   OO          +",
"+  OOO          ",
"+  OOO          ",
"+  OOO      o   ",
"++  OOO   .OO  +",
"++  XOOOOOOOO ++",
"++    OOOOOO +++",
"++++        ++++",
"++++++++   +++++"
};
